v 1.000000 -1.000000 -1.000000
v 1.000000 -1.000000 1.000000
v -1.000000 -1.000000 1.000000
v -1.000000 -1.000000 -1.000000
v 1.000000 1.000000 -0.999999
v 0.999999 1.000000 1.000001
v -1.000000 1.000000 1.000000
v -1.000000 1.000000 -1.000000
v 1.355945 -1.000000 -1.000000
v 1.355945 -1.000000 1.000000
v 1.355946 1.000000 -0.999999
v 1.355945 1.000000 1.000001
v 1.355945 -1.000000 3.629170
v 1.355945 1.000000 3.629171
v 3.975463 -1.000000 3.629170
v 3.975462 1.000000 3.629171
v 3.975463 -1.000000 -1.624543
v 3.975462 1.000000 -1.624543
v 1.360598 -1.000000 -1.624543
v 1.360597 1.000000 -1.624543
vt 0.528364 0.483286
vt 0.966763 0.483286
vt 0.966763 0.044887
vt 0.025208 0.480402
vt 0.473463 0.480402
vt 0.473463 0.032147
vt 0.189561 0.086143
vt 0.189561 0.440430
vt 0.305886 0.440430
vt 0.023263 0.974567
vt 0.419663 0.974567
vt 0.419663 0.578167
vt 0.021065 0.570467
vt 0.021065 0.965727
vt 0.416325 0.965727
vt 0.028180 0.969324
vt 0.420790 0.969324
vt 0.420790 0.576714
vt 0.753507 0.502330
vt 0.544603 0.381720
vt 0.962410 0.140499
vt 0.490537 0.966595
vt 0.566399 0.966595
vt 0.566399 0.603794
vt 0.466739 0.966830
vt 0.588459 0.966830
vt 0.588459 0.583269
vt 0.700503 0.447715
vt 0.811849 0.447715
vt 0.811849 0.108485
vt 0.018671 0.576481
vt 0.018671 0.970160
vt 0.412350 0.970160
vt 0.015978 0.979797
vt 0.423149 0.979797
vt 0.423149 0.572626
vt 0.010813 0.986984
vt 0.436420 0.986984
vt 0.436420 0.561378
vt 0.023817 0.575528
vt 0.023817 0.964728
vt 0.413017 0.964728
vt 0.456653 0.972589
vt 0.584657 0.972589
vt 0.584657 0.587353
vt 0.246224 0.470994
vt 0.055114 0.360657
vt 0.246224 0.029645
vt 0.528364 0.044887
vt 0.025208 0.032147
vt 0.305886 0.086143
vt 0.023263 0.578167
vt 0.416325 0.570467
vt 0.028180 0.576714
vt 0.962410 0.381720
vt 0.753507 0.019888
vt 0.544603 0.140499
vt 0.490537 0.603794
vt 0.466739 0.583269
vt 0.700503 0.108485
vt 0.412350 0.576481
vt 0.015978 0.572626
vt 0.010813 0.561378
vt 0.413017 0.575528
vt 0.456653 0.587353
vt 0.437333 0.139982
vt 0.437333 0.360657
vt 0.055114 0.139982
vn 0.000000 1.000000 0.000000
vn 0.000000 -1.000000 0.000000
vn 0.000000 -0.000000 -1.000000
vn 1.000000 0.000000 0.000000
vn -0.000000 -0.000000 1.000000
vn -1.000000 0.000000 0.000000
vn 1.000000 -0.000000 0.007400
f 4/1/1 3/2/1 2/3/1
f 6/4/2 7/5/2 8/6/2
f 5/7/2 11/8/2 12/9/2
f 3/10/3 7/11/3 6/12/3
f 3/13/4 4/14/4 8/15/4
f 8/16/5 4/17/5 1/18/5
f 9/19/1 10/20/1 17/21/1
f 12/22/3 10/23/3 2/24/3
f 9/25/5 11/26/5 5/27/5
f 10/28/1 9/29/1 1/30/1
f 12/31/4 14/32/4 13/33/4
f 16/34/3 15/35/3 13/36/3
f 18/37/6 17/38/6 15/39/6
f 18/40/5 20/41/5 19/42/5
f 11/43/7 9/44/7 19/45/7
f 12/46/2 11/47/2 18/48/2
f 1/49/1 4/1/1 2/3/1
f 5/50/2 6/4/2 8/6/2
f 6/51/2 5/7/2 12/9/2
f 2/52/3 3/10/3 6/12/3
f 7/53/4 3/13/4 8/15/4
f 5/54/5 8/16/5 1/18/5
f 17/21/1 19/55/1 9/19/1
f 10/20/1 15/56/1 17/21/1
f 15/56/1 10/20/1 13/57/1
f 6/58/3 12/22/3 2/24/3
f 1/59/5 9/25/5 5/27/5
f 2/60/1 10/28/1 1/30/1
f 10/61/4 12/31/4 13/33/4
f 14/62/3 16/34/3 13/36/3
f 16/63/6 18/37/6 15/39/6
f 17/64/5 18/40/5 19/42/5
f 20/65/7 11/43/7 19/45/7
f 16/66/2 14/67/2 12/46/2
f 12/46/2 18/48/2 16/66/2
f 18/48/2 11/47/2 20/68/2
