v 4.194261 -0.200250 -4.194260
v 4.194261 -0.200250 4.194261
v -4.194261 -0.200250 4.194260
v -4.194259 -0.200250 -4.194262
v 4.194263 0.200250 -4.194258
v 4.194258 0.200250 4.194263
v -4.194262 0.200250 4.194259
v -4.194260 0.200250 -4.194261
vt 0.518951 0.513698
vt 0.991222 0.513698
vt 0.991222 0.985969
vt 0.503577 0.502136
vt 0.503577 0.986691
vt 0.019022 0.986691
vt 0.568217 0.328330
vt 0.568217 0.367608
vt 0.021135 0.367608
vt 0.568387 0.263011
vt 0.568387 0.293218
vt 0.021306 0.293218
vt 0.026905 0.201992
vt 0.535828 0.201992
vt 0.535828 0.225680
vt 0.568383 0.420939
vt 0.568383 0.462623
vt 0.021301 0.462623
vt 0.518951 0.985969
vt 0.019022 0.502136
vt 0.021135 0.328330
vt 0.021306 0.263011
vt 0.026905 0.225680
vt 0.021301 0.420939
vn 0.000000 -1.000000 0.000000
vn 0.000000 1.000000 -0.000000
vn 1.000000 0.000000 0.000000
vn -0.000000 0.000000 1.000000
vn -1.000000 -0.000000 -0.000000
vn 0.000000 0.000000 -1.000000
f 1/1/1 2/2/1 3/3/1
f 8/4/2 7/5/2 6/6/2
f 5/7/3 6/8/3 2/9/3
f 6/10/4 7/11/4 3/12/4
f 3/13/5 7/14/5 8/15/5
f 1/16/6 4/17/6 8/18/6
f 4/19/1 1/1/1 3/3/1
f 5/20/2 8/4/2 6/6/2
f 1/21/3 5/7/3 2/9/3
f 2/22/4 6/10/4 3/12/4
f 4/23/5 3/13/5 8/15/5
f 5/24/6 1/16/6 8/18/6
